<svg width="25" height="24" viewBox="0 0 25 24" fill="none" xmlns="http://www.w3.org/2000/svg">
<path d="M4.4917 19C4.20837 19 3.9707 18.904 3.7787 18.712C3.5867 18.52 3.49104 18.2827 3.4917 18C3.4917 17.7167 3.5877 17.479 3.7797 17.287C3.9717 17.095 4.20904 16.9993 4.4917 17H20.4917C20.775 17 21.0127 17.096 21.2047 17.288C21.3967 17.48 21.4924 17.7173 21.4917 18C21.4917 18.2833 21.3957 18.521 21.2037 18.713C21.0117 18.905 20.7744 19.0007 20.4917 19H4.4917ZM4.4917 13C4.20837 13 3.9707 12.904 3.7787 12.712C3.5867 12.52 3.49104 12.2827 3.4917 12C3.4917 11.7167 3.5877 11.479 3.7797 11.287C3.9717 11.095 4.20904 10.9993 4.4917 11H20.4917C20.775 11 21.0127 11.096 21.2047 11.288C21.3967 11.48 21.4924 11.7173 21.4917 12C21.4917 12.2833 21.3957 12.521 21.2037 12.713C21.0117 12.905 20.7744 13.0007 20.4917 13H4.4917ZM4.4917 7C4.20837 7 3.9707 6.904 3.7787 6.712C3.5867 6.52 3.49104 6.28267 3.4917 6C3.4917 5.71667 3.5877 5.479 3.7797 5.287C3.9717 5.095 4.20904 4.99934 4.4917 5H20.4917C20.775 5 21.0127 5.096 21.2047 5.288C21.3967 5.48 21.4924 5.71734 21.4917 6C21.4917 6.28334 21.3957 6.521 21.2037 6.713C21.0117 6.905 20.7744 7.00067 20.4917 7H4.4917Z" fill="#B3B3B3"/>
</svg>
