<svg width="36" height="36" viewBox="0 0 36 36" fill="none" xmlns="http://www.w3.org/2000/svg">
<path d="M29.8876 10.8681L23.977 4.96001C23.7815 4.7626 23.5488 4.60588 23.2923 4.49893C23.0359 4.39198 22.7607 4.33691 22.4829 4.33691C22.205 4.33691 21.9298 4.39198 21.6734 4.49893C21.4169 4.60588 21.1842 4.7626 20.9887 4.96001L5.12147 20.8206C4.92431 21.0161 4.76788 21.2488 4.66122 21.5052C4.55455 21.7615 4.49975 22.0365 4.5 22.3141V28.2222C4.5 28.783 4.7229 29.3209 5.11965 29.7175C5.51641 30.1141 6.05453 30.3369 6.61563 30.3369H12.5262C12.8039 30.3372 13.079 30.2824 13.3354 30.1758C13.5919 30.0691 13.8247 29.9128 14.0203 29.7157L29.8876 13.8551C30.28 13.457 30.5 12.9205 30.5 12.3616C30.5 11.8027 30.28 11.2662 29.8876 10.8681ZM7.05198 21.8779L18.2516 10.683L20.4598 12.8903L9.26017 24.0852L7.05198 21.8779ZM6.61563 24.4289L10.4105 28.2222H6.61563V24.4289ZM12.9625 27.786L10.7543 25.5787L21.9539 14.3838L24.1621 16.5911L12.9625 27.786ZM25.6563 15.0976L19.7458 9.18949L22.4829 6.45355L28.3934 12.3616L25.6563 15.0976Z" fill="#CCCCCC"/>
</svg>
