<svg width="36" height="36" viewBox="0 0 36 36" fill="none" xmlns="http://www.w3.org/2000/svg">
<path fill-rule="evenodd" clip-rule="evenodd" d="M19.8888 6.60039C19.4143 6.60039 18.9593 6.78886 18.6239 7.12434C18.2884 7.45983 18.0999 7.91484 18.0999 8.38928V8.75039C18.0999 9.32945 17.8699 9.88479 17.4604 10.2942C17.051 10.7037 16.4956 10.9337 15.9166 10.9337H9.77768C9.68633 10.9337 9.59872 10.97 9.53412 11.0346C9.46952 11.0992 9.43324 11.1868 9.43324 11.2782V15.9726C9.43324 16.5517 9.20321 17.107 8.79375 17.5165C8.3843 17.9259 7.82896 18.1559 7.2499 18.1559H6.88879C6.41435 18.1559 5.95934 18.3444 5.62386 18.6799C5.28837 19.0154 5.0999 19.4704 5.0999 19.9448C5.0999 20.4193 5.28837 20.8743 5.62386 21.2098C5.95934 21.5453 6.41435 21.7337 6.88879 21.7337H7.2499C7.82896 21.7337 8.3843 21.9638 8.79375 22.3732C9.20321 22.7827 9.43324 23.338 9.43324 23.9171V30.0559C9.43324 30.1473 9.46953 30.2349 9.53412 30.2995C9.59872 30.3641 9.68633 30.4004 9.77768 30.4004H15.8999V30.0559C15.8999 28.998 16.3202 27.9834 17.0682 27.2354C17.8163 26.4873 18.8309 26.0671 19.8888 26.0671C20.9467 26.0671 21.9613 26.4873 22.7094 27.2354C23.4574 27.9834 23.8777 28.998 23.8777 30.0559V30.4004H28.5555C28.6468 30.4004 28.7344 30.3641 28.799 30.2995C28.8636 30.2349 28.8999 30.1473 28.8999 30.0559V23.9337H28.5555C27.4975 23.9337 26.4829 23.5135 25.7349 22.7654C24.9868 22.0173 24.5666 21.0028 24.5666 19.9448C24.5666 18.8869 24.9868 17.8723 25.7349 17.1243C26.4829 16.3762 27.4975 15.9559 28.5555 15.9559H28.8999V11.2782C28.8999 11.1868 28.8636 11.0992 28.799 11.0346C28.7344 10.97 28.6468 10.9337 28.5555 10.9337H23.861C22.6555 10.9337 21.6777 9.9559 21.6777 8.75039V8.38928C21.6777 7.91484 21.4892 7.45983 21.1537 7.12434C20.8182 6.78886 20.3632 6.60039 19.8888 6.60039ZM17.0682 5.56871C17.8163 4.82065 18.8309 4.40039 19.8888 4.40039C20.9467 4.40039 21.9613 4.82065 22.7094 5.56871C23.4574 6.31677 23.8777 7.33136 23.8777 8.38928V8.73372H28.5555C29.2303 8.73372 29.8775 9.0018 30.3547 9.47897C30.8318 9.95615 31.0999 10.6033 31.0999 11.2782V15.9726C31.0999 16.5517 30.8699 17.107 30.4604 17.5165C30.051 17.9259 29.4956 18.1559 28.9166 18.1559H28.5555C28.081 18.1559 27.626 18.3444 27.2905 18.6799C26.955 19.0154 26.7666 19.4704 26.7666 19.9448C26.7666 20.4193 26.955 20.8743 27.2905 21.2098C27.626 21.5453 28.081 21.7337 28.5555 21.7337H28.9166C29.4956 21.7337 30.051 21.9638 30.4604 22.3732C30.8699 22.7827 31.0999 23.338 31.0999 23.9171V30.0559C31.0999 30.7308 30.8318 31.378 30.3547 31.8551C29.8775 32.3323 29.2303 32.6004 28.5555 32.6004H23.861C23.282 32.6004 22.7266 32.3704 22.3172 31.9609C21.9077 31.5515 21.6777 30.9961 21.6777 30.4171V30.0559C21.6777 29.5815 21.4892 29.1265 21.1537 28.791C20.8182 28.4555 20.3632 28.2671 19.8888 28.2671C19.4143 28.2671 18.9593 28.4555 18.6239 28.791C18.2884 29.1265 18.0999 29.5815 18.0999 30.0559V30.4171C18.0999 30.9961 17.8699 31.5515 17.4604 31.9609C17.051 32.3704 16.4956 32.6004 15.9166 32.6004H9.77768C9.10285 32.6004 8.45566 32.3323 7.97849 31.8551C7.50131 31.378 7.23324 30.7308 7.23324 30.0559V23.9337H6.88879C5.83087 23.9337 4.81628 23.5135 4.06822 22.7654C3.32016 22.0173 2.8999 21.0028 2.8999 19.9448C2.8999 18.8869 3.32016 17.8723 4.06822 17.1243C4.81628 16.3762 5.83087 15.9559 6.88879 15.9559H7.23324V11.2782C7.23324 10.6033 7.50131 9.95615 7.97849 9.47897C8.45566 9.0018 9.10285 8.73372 9.77768 8.73372H15.8999V8.38928C15.8999 7.33136 16.3202 6.31677 17.0682 5.56871Z" fill="#CCCCCC"/>
</svg>
