<svg width="24" height="25" viewBox="0 0 24 25" fill="none" xmlns="http://www.w3.org/2000/svg">
<path d="M12 16.8263C11.8206 16.8263 11.647 16.7927 11.4793 16.7254C11.3107 16.6581 11.1704 16.5685 11.0582 16.4564L4.86991 10.268C4.62327 10.0214 4.49995 9.70747 4.49995 9.32631C4.49995 8.94514 4.62327 8.63124 4.86991 8.3846C5.11655 8.13797 5.43045 8.01465 5.81161 8.01465C6.19278 8.01465 6.50668 8.13797 6.75332 8.3846L12 13.6312L17.2466 8.3846C17.4932 8.13797 17.8071 8.01465 18.1883 8.01465C18.5695 8.01465 18.8834 8.13797 19.13 8.3846C19.3766 8.63124 19.5 8.94514 19.5 9.32631C19.5 9.70747 19.3766 10.0214 19.13 10.268L12.9417 16.4564C12.8071 16.5909 12.6614 16.6859 12.5044 16.7416C12.3475 16.7981 12.1793 16.8263 12 16.8263Z" fill="#666666"/>
</svg>
