<svg width="36" height="37" viewBox="0 0 36 37" fill="none" xmlns="http://www.w3.org/2000/svg">
<path d="M25.275 10.7752L27.435 12.9352L20.115 20.2552L15.18 15.3202C15.0412 15.1811 14.8764 15.0708 14.6949 14.9955C14.5135 14.9202 14.3189 14.8815 14.1225 14.8815C13.926 14.8815 13.7315 14.9202 13.55 14.9955C13.3686 15.0708 13.2038 15.1811 13.065 15.3202L4.06498 24.3352C3.92611 24.474 3.81595 24.6389 3.74079 24.8204C3.66564 25.0018 3.62695 25.1963 3.62695 25.3927C3.62695 25.5891 3.66564 25.7835 3.74079 25.965C3.81595 26.1464 3.92611 26.3113 4.06498 26.4502C4.20386 26.589 4.36872 26.6992 4.55017 26.7744C4.73162 26.8495 4.92609 26.8882 5.12248 26.8882C5.31888 26.8882 5.51335 26.8495 5.6948 26.7744C5.87625 26.6992 6.04111 26.589 6.17998 26.4502L14.115 18.5002L19.05 23.4352C19.635 24.0202 20.58 24.0202 21.165 23.4352L29.55 15.0652L31.71 17.2252C31.8148 17.328 31.9475 17.3977 32.0916 17.4258C32.2357 17.4539 32.3849 17.439 32.5206 17.3831C32.6564 17.3272 32.7727 17.2327 32.8553 17.1113C32.9378 16.9899 32.9829 16.847 32.985 16.7002V10.2502C32.9891 10.1518 32.973 10.0537 32.9377 9.96186C32.9025 9.86999 32.8487 9.78634 32.7798 9.71605C32.711 9.64577 32.6284 9.59035 32.5373 9.55322C32.4461 9.51609 32.3484 9.49803 32.25 9.50017H25.815C25.6669 9.4993 25.5219 9.54228 25.3982 9.62369C25.2745 9.70511 25.1777 9.82131 25.12 9.95766C25.0622 10.094 25.0461 10.2444 25.0737 10.3899C25.1013 10.5354 25.1713 10.6694 25.275 10.7752Z" fill="#CCCCCC"/>
</svg>
