<svg width="33" height="33" viewBox="0 0 33 33" fill="none" xmlns="http://www.w3.org/2000/svg">
<path d="M16.2678 22.7275C16.09 22.7275 15.918 22.6941 15.7518 22.6275C15.5847 22.5608 15.4456 22.4719 15.3345 22.3608L9.20114 16.2275C8.95669 15.983 8.83447 15.6719 8.83447 15.2941C8.83447 14.9164 8.95669 14.6053 9.20114 14.3608C9.44558 14.1164 9.75669 13.9941 10.1345 13.9941C10.5123 13.9941 10.8234 14.1164 11.0678 14.3608L16.2678 19.5608L21.4678 14.3608C21.7122 14.1164 22.0234 13.9941 22.4011 13.9941C22.7789 13.9941 23.09 14.1164 23.3345 14.3608C23.5789 14.6053 23.7011 14.9164 23.7011 15.2941C23.7011 15.6719 23.5789 15.983 23.3345 16.2275L17.2011 22.3608C17.0678 22.4941 16.9234 22.5884 16.7678 22.6435C16.6122 22.6995 16.4456 22.7275 16.2678 22.7275Z" fill="#CCCCCC"/>
</svg>
