<svg width="10" height="10" viewBox="0 0 10 10" fill="none" xmlns="http://www.w3.org/2000/svg">
<path d="M9.10298 0.79705C9.0413 0.735248 8.96805 0.686216 8.8874 0.652762C8.80675 0.619307 8.72029 0.602087 8.63298 0.602087C8.54567 0.602087 8.45921 0.619307 8.37856 0.652762C8.29792 0.686216 8.22466 0.735248 8.16298 0.79705L4.90298 4.05038L1.64298 0.790383C1.58126 0.728662 1.50799 0.679702 1.42734 0.646299C1.3467 0.612895 1.26027 0.595703 1.17298 0.595703C1.08569 0.595703 0.999262 0.612895 0.918619 0.646299C0.837976 0.679702 0.764702 0.728662 0.702981 0.790383C0.64126 0.852105 0.5923 0.925378 0.558896 1.00602C0.525493 1.08666 0.508301 1.1731 0.508301 1.26038C0.508301 1.34767 0.525493 1.4341 0.558896 1.51475C0.5923 1.59539 0.64126 1.66866 0.702981 1.73038L3.96298 4.99038L0.702981 8.25038C0.64126 8.3121 0.5923 8.38538 0.558896 8.46602C0.525493 8.54666 0.508301 8.6331 0.508301 8.72038C0.508301 8.80767 0.525493 8.8941 0.558896 8.97475C0.5923 9.05539 0.64126 9.12866 0.702981 9.19038C0.764702 9.2521 0.837976 9.30106 0.918619 9.33447C0.999262 9.36787 1.08569 9.38506 1.17298 9.38506C1.26027 9.38506 1.3467 9.36787 1.42734 9.33447C1.50799 9.30106 1.58126 9.2521 1.64298 9.19038L4.90298 5.93038L8.16298 9.19038C8.2247 9.2521 8.29798 9.30106 8.37862 9.33447C8.45926 9.36787 8.54569 9.38506 8.63298 9.38506C8.72027 9.38506 8.8067 9.36787 8.88734 9.33447C8.96799 9.30106 9.04126 9.2521 9.10298 9.19038C9.1647 9.12866 9.21366 9.05539 9.24707 8.97475C9.28047 8.8941 9.29766 8.80767 9.29766 8.72038C9.29766 8.6331 9.28047 8.54666 9.24707 8.46602C9.21366 8.38538 9.1647 8.3121 9.10298 8.25038L5.84298 4.99038L9.10298 1.73038C9.35631 1.47705 9.35631 1.05038 9.10298 0.79705Z" fill="white"/>
</svg>
