<svg width="37" height="37" viewBox="0 0 37 37" fill="none" xmlns="http://www.w3.org/2000/svg">
<path d="M30.875 6.125H6.125C5.52826 6.125 4.95597 6.36205 4.53401 6.78401C4.11205 7.20597 3.875 7.77826 3.875 8.375V26.375C3.875 26.9717 4.11205 27.544 4.53401 27.966C4.95597 28.3879 5.52826 28.625 6.125 28.625H14.4922L16.5734 32.0984C16.771 32.4338 17.0526 32.7117 17.3905 32.9049C17.7284 33.098 18.1108 33.1996 18.5 33.1996C18.8892 33.1996 19.2716 33.098 19.6095 32.9049C19.9474 32.7117 20.229 32.4338 20.4266 32.0984L22.5078 28.625H30.875C31.4717 28.625 32.044 28.3879 32.466 27.966C32.8879 27.544 33.125 26.9717 33.125 26.375V8.375C33.125 7.77826 32.8879 7.20597 32.466 6.78401C32.044 6.36205 31.4717 6.125 30.875 6.125ZM30.875 26.375H22.5078C22.1196 26.3773 21.7385 26.4794 21.4011 26.6715C21.0637 26.8636 20.7814 27.1392 20.5813 27.4719L18.5 30.9453L16.4187 27.4719C16.2186 27.1392 15.9363 26.8636 15.5989 26.6715C15.2615 26.4794 14.8804 26.3773 14.4922 26.375H6.125V8.375H30.875V26.375ZM16.8125 17.375C16.8125 17.0412 16.9115 16.715 17.0969 16.4375C17.2823 16.16 17.5459 15.9437 17.8542 15.816C18.1626 15.6882 18.5019 15.6548 18.8292 15.7199C19.1566 15.785 19.4572 15.9458 19.6932 16.1818C19.9292 16.4178 20.09 16.7184 20.1551 17.0458C20.2202 17.3731 20.1868 17.7124 20.059 18.0208C19.9313 18.3291 19.715 18.5927 19.4375 18.7781C19.16 18.9635 18.8338 19.0625 18.5 19.0625C18.0524 19.0625 17.6232 18.8847 17.3068 18.5682C16.9903 18.2518 16.8125 17.8226 16.8125 17.375ZM10.0625 17.375C10.0625 17.0412 10.1615 16.715 10.3469 16.4375C10.5323 16.16 10.7959 15.9437 11.1042 15.816C11.4126 15.6882 11.7519 15.6548 12.0792 15.7199C12.4066 15.785 12.7072 15.9458 12.9432 16.1818C13.1792 16.4178 13.34 16.7184 13.4051 17.0458C13.4702 17.3731 13.4368 17.7124 13.309 18.0208C13.1813 18.3291 12.965 18.5927 12.6875 18.7781C12.41 18.9635 12.0838 19.0625 11.75 19.0625C11.3024 19.0625 10.8732 18.8847 10.5568 18.5682C10.2403 18.2518 10.0625 17.8226 10.0625 17.375ZM23.5625 17.375C23.5625 17.0412 23.6615 16.715 23.8469 16.4375C24.0323 16.16 24.2959 15.9437 24.6042 15.816C24.9126 15.6882 25.2519 15.6548 25.5792 15.7199C25.9066 15.785 26.2072 15.9458 26.4432 16.1818C26.6792 16.4178 26.84 16.7184 26.9051 17.0458C26.9702 17.3731 26.9368 17.7124 26.809 18.0208C26.6813 18.3291 26.465 18.5927 26.1875 18.7781C25.91 18.9635 25.5838 19.0625 25.25 19.0625C24.8024 19.0625 24.3732 18.8847 24.0568 18.5682C23.7403 18.2518 23.5625 17.8226 23.5625 17.375Z" fill="#CCCCCC"/>
</svg>
