<svg width="25" height="25" viewBox="0 0 25 25" fill="none" xmlns="http://www.w3.org/2000/svg">
<path d="M10.2669 14.3645L16.1669 8.46445C16.3502 8.28112 16.5836 8.18945 16.8669 8.18945C17.1502 8.18945 17.3836 8.28112 17.5669 8.46445C17.7502 8.64779 17.8419 8.88112 17.8419 9.16445C17.8419 9.44779 17.7502 9.68112 17.5669 9.86445L10.9669 16.4645C10.7669 16.6645 10.5336 16.7645 10.2669 16.7645C10.0002 16.7645 9.76689 16.6645 9.56689 16.4645L6.96689 13.8645C6.78356 13.6811 6.69189 13.4478 6.69189 13.1645C6.69189 12.8811 6.78356 12.6478 6.96689 12.4645C7.15023 12.2811 7.38356 12.1895 7.66689 12.1895C7.95023 12.1895 8.18356 12.2811 8.36689 12.4645L10.2669 14.3645Z" fill="#808080"/>
</svg>
