<svg width="25" height="25" viewBox="0 0 25 25" fill="none" xmlns="http://www.w3.org/2000/svg">
<path d="M19.455 6.02528C19.2567 5.82646 18.9873 5.71472 18.7065 5.71472C18.4256 5.71472 18.1563 5.82646 17.9579 6.02528L12.7656 11.2069L7.57336 6.01467C7.37498 5.81584 7.10565 5.7041 6.82478 5.7041C6.54392 5.7041 6.27459 5.81584 6.07621 6.01467C5.6621 6.42877 5.6621 7.09772 6.07621 7.51182L11.2685 12.7041L6.07621 17.8963C5.6621 18.3105 5.6621 18.9794 6.07621 19.3935C6.49031 19.8076 7.15925 19.8076 7.57336 19.3935L12.7656 14.2012L17.9579 19.3935C18.372 19.8076 19.0409 19.8076 19.455 19.3935C19.8692 18.9794 19.8692 18.3105 19.455 17.8963L14.2628 12.7041L19.455 7.51182C19.8585 7.10833 19.8585 6.42877 19.455 6.02528Z" fill="#B3B3B3"/>
</svg>
