<svg width="36" height="36" viewBox="0 0 36 36" fill="none" xmlns="http://www.w3.org/2000/svg">
<path d="M28.0038 22.25C28.0038 22.25 25.0037 25.505 25.0037 27.5C25.0037 28.2956 25.3198 29.0587 25.8824 29.6213C26.445 30.1839 27.2081 30.5 28.0038 30.5C28.7994 30.5 29.5625 30.1839 30.1251 29.6213C30.6877 29.0587 31.0038 28.2956 31.0038 27.5C31.0038 25.505 28.0038 22.25 28.0038 22.25ZM7.31875 20L14.5038 12.815L21.6887 20M24.3437 18.41L10.9337 5L8.81875 7.115L12.3888 10.685L4.66375 18.41C3.77875 19.25 3.77875 20.705 4.66375 21.59L12.9137 29.84C13.3487 30.275 13.9338 30.5 14.5038 30.5C15.0738 30.5 15.6588 30.275 16.0938 29.84L24.3437 21.59C25.2287 20.705 25.2287 19.25 24.3437 18.41Z" fill="#CCCCCC"/>
</svg>
