<svg width="16" height="16" viewBox="0 0 16 16" fill="none" xmlns="http://www.w3.org/2000/svg">
<path d="M9.22621 11.2363H9.22595C8.96546 11.2364 8.71534 11.3399 8.53094 11.5243C8.53092 11.5243 8.5309 11.5244 8.53088 11.5244L7.4729 12.5824C7.05483 13.0004 6.3402 12.7046 6.3402 12.1131C6.3402 11.6288 5.94737 11.2363 5.4634 11.2363H3.65687C3.31651 11.2363 2.99009 11.1011 2.74942 10.8604L2.39755 11.2122L2.74941 10.8604C2.50874 10.6197 2.37354 10.2933 2.37354 9.95293V4.28626C2.37354 3.9459 2.50874 3.61948 2.74941 3.37881C2.99009 3.13814 3.31651 3.00293 3.65687 3.00293H11.5902C11.9306 3.00293 12.257 3.13814 12.4977 3.37881C12.7383 3.61948 12.8735 3.9459 12.8735 4.28626V9.95293C12.8735 10.2933 12.7383 10.6197 12.4977 10.8604C12.257 11.1011 11.9306 11.2363 11.5902 11.2363H9.22621Z" stroke="#B3B3B3" stroke-linecap="round" stroke-linejoin="round"/>
</svg>
