<svg width="24" height="24" viewBox="0 0 24 24" fill="none" xmlns="http://www.w3.org/2000/svg">
<path d="M10.2 18C10.0409 18 9.88826 17.9368 9.77574 17.8243C9.66321 17.7117 9.6 17.5591 9.6 17.4V15.6H7.2C6.88174 15.6 6.57652 15.4736 6.35147 15.2485C6.12643 15.0235 6 14.7183 6 14.4V7.2C6 6.88174 6.12643 6.57652 6.35147 6.35147C6.57652 6.12643 6.88174 6 7.2 6H16.8C17.1183 6 17.4235 6.12643 17.6485 6.35147C17.8736 6.57652 18 6.88174 18 7.2V14.4C18 14.7183 17.8736 15.0235 17.6485 15.2485C17.4235 15.4736 17.1183 15.6 16.8 15.6H13.14L10.92 17.826C10.8 17.94 10.65 18 10.5 18H10.2ZM10.8 14.4V16.248L12.648 14.4H16.8V7.2H7.2V14.4H10.8Z" fill="#B3B3B3"/>
</svg>
