<svg width="21" height="21" viewBox="0 0 21 21" fill="none" xmlns="http://www.w3.org/2000/svg">
<path d="M10.75 0.5C9.43678 0.5 8.13642 0.758658 6.92317 1.2612C5.70991 1.76375 4.60752 2.50035 3.67893 3.42893C1.80357 5.3043 0.75 7.84784 0.75 10.5C0.75 14.92 3.62 18.67 7.59 20C8.09 20.08 8.25 19.77 8.25 19.5V17.81C5.48 18.41 4.89 16.47 4.89 16.47C4.43 15.31 3.78 15 3.78 15C2.87 14.38 3.85 14.4 3.85 14.4C4.85 14.47 5.38 15.43 5.38 15.43C6.25 16.95 7.72 16.5 8.29 16.26C8.38 15.61 8.64 15.17 8.92 14.92C6.7 14.67 4.37 13.81 4.37 10C4.37 8.89 4.75 8 5.4 7.29C5.3 7.04 4.95 6 5.5 4.65C5.5 4.65 6.34 4.38 8.25 5.67C9.04 5.45 9.9 5.34 10.75 5.34C11.6 5.34 12.46 5.45 13.25 5.67C15.16 4.38 16 4.65 16 4.65C16.55 6 16.2 7.04 16.1 7.29C16.75 8 17.13 8.89 17.13 10C17.13 13.82 14.79 14.66 12.56 14.91C12.92 15.22 13.25 15.83 13.25 16.76V19.5C13.25 19.77 13.41 20.09 13.92 20C17.89 18.66 20.75 14.92 20.75 10.5C20.75 9.18678 20.4913 7.88642 19.9888 6.67317C19.4862 5.45991 18.7497 4.35752 17.8211 3.42893C16.8925 2.50035 15.7901 1.76375 14.5768 1.2612C13.3636 0.758658 12.0632 0.5 10.75 0.5Z" fill="#808080"/>
</svg>
