<svg width="25" height="24" viewBox="0 0 25 24" fill="none" xmlns="http://www.w3.org/2000/svg">
<path d="M12.5119 16.7034L12.5108 16.7024C10.8331 15.1284 9.49975 13.8737 8.57709 12.7058C7.66337 11.5492 7.22458 10.5647 7.22458 9.54318C7.22458 7.86877 8.47505 6.61719 10.0274 6.61719C10.915 6.61719 11.7868 7.04873 12.357 7.73622L12.9343 8.4321L13.5115 7.73622C14.0818 7.04873 14.9536 6.61719 15.8412 6.61719C17.3935 6.61719 18.644 7.86877 18.644 9.54318C18.644 10.5647 18.2052 11.5492 17.2915 12.7058C16.3688 13.8737 15.0355 15.1284 13.3578 16.7024L13.3567 16.7034L12.9343 17.1013L12.5119 16.7034Z" stroke="#B3B3B3" stroke-width="1.5"/>
</svg>
