<svg width="21" height="20" viewBox="0 0 21 20" fill="none" xmlns="http://www.w3.org/2000/svg">
<path d="M10.1807 15C10.464 15 10.7017 14.904 10.8937 14.712C11.0857 14.52 11.1813 14.2827 11.1807 14C11.1807 13.7167 11.0847 13.479 10.8927 13.287C10.7007 13.095 10.4633 12.9993 10.1807 13C9.89733 13 9.65966 13.096 9.46766 13.288C9.27566 13.48 9.18 13.7173 9.18066 14C9.18066 14.2833 9.27666 14.521 9.46866 14.713C9.66066 14.905 9.898 15.0007 10.1807 15ZM10.1807 11C10.464 11 10.7017 10.904 10.8937 10.712C11.0857 10.52 11.1813 10.2827 11.1807 10V6C11.1807 5.71667 11.0847 5.479 10.8927 5.287C10.7007 5.095 10.4633 4.99933 10.1807 5C9.89733 5 9.65966 5.096 9.46766 5.288C9.27566 5.48 9.18 5.71733 9.18066 6V10C9.18066 10.2833 9.27666 10.521 9.46866 10.713C9.66066 10.905 9.898 11.0007 10.1807 11ZM10.1807 20C8.79733 20 7.49733 19.7373 6.28066 19.212C5.064 18.6867 4.00566 17.9743 3.10566 17.075C2.20566 16.175 1.49333 15.1167 0.968664 13.9C0.443998 12.6833 0.181331 11.3833 0.180664 10C0.180664 8.61667 0.443331 7.31667 0.968664 6.1C1.494 4.88333 2.20633 3.825 3.10566 2.925C4.00566 2.025 5.064 1.31267 6.28066 0.788C7.49733 0.263333 8.79733 0.000666667 10.1807 0C11.564 0 12.864 0.262667 14.0807 0.788C15.2973 1.31333 16.3557 2.02567 17.2557 2.925C18.1557 3.825 18.8683 4.88333 19.3937 6.1C19.919 7.31667 20.1813 8.61667 20.1807 10C20.1807 11.3833 19.918 12.6833 19.3927 13.9C18.8673 15.1167 18.155 16.175 17.2557 17.075C16.3557 17.975 15.2973 18.6877 14.0807 19.213C12.864 19.7383 11.564 20.0007 10.1807 20ZM10.1807 18C12.414 18 14.3057 17.225 15.8557 15.675C17.4057 14.125 18.1807 12.2333 18.1807 10C18.1807 7.76667 17.4057 5.875 15.8557 4.325C14.3057 2.775 12.414 2 10.1807 2C7.94733 2 6.05566 2.775 4.50566 4.325C2.95566 5.875 2.18066 7.76667 2.18066 10C2.18066 12.2333 2.95566 14.125 4.50566 15.675C6.05566 17.225 7.94733 18 10.1807 18Z" fill="white"/>
</svg>
