<svg width="25" height="24" viewBox="0 0 25 24" fill="none" xmlns="http://www.w3.org/2000/svg">
<path d="M12.4843 2C11.171 2 9.87067 2.25866 8.65742 2.7612C7.44416 3.26375 6.34177 4.00035 5.41319 4.92893C3.53782 6.8043 2.48425 9.34784 2.48425 12C2.48425 16.42 5.35425 20.17 9.32425 21.5C9.82425 21.58 9.98425 21.27 9.98425 21V19.31C7.21425 19.91 6.62425 17.97 6.62425 17.97C6.16425 16.81 5.51425 16.5 5.51425 16.5C4.60425 15.88 5.58425 15.9 5.58425 15.9C6.58425 15.97 7.11425 16.93 7.11425 16.93C7.98425 18.45 9.45425 18 10.0243 17.76C10.1143 17.11 10.3743 16.67 10.6543 16.42C8.43425 16.17 6.10425 15.31 6.10425 11.5C6.10425 10.39 6.48425 9.5 7.13425 8.79C7.03425 8.54 6.68425 7.5 7.23425 6.15C7.23425 6.15 8.07425 5.88 9.98425 7.17C10.7743 6.95 11.6343 6.84 12.4843 6.84C13.3343 6.84 14.1943 6.95 14.9843 7.17C16.8943 5.88 17.7343 6.15 17.7343 6.15C18.2843 7.5 17.9343 8.54 17.8343 8.79C18.4843 9.5 18.8643 10.39 18.8643 11.5C18.8643 15.32 16.5243 16.16 14.2943 16.41C14.6543 16.72 14.9843 17.33 14.9843 18.26V21C14.9843 21.27 15.1443 21.59 15.6543 21.5C19.6243 20.16 22.4843 16.42 22.4843 12C22.4843 10.6868 22.2256 9.38642 21.723 8.17317C21.2205 6.95991 20.4839 5.85752 19.5553 4.92893C18.6267 4.00035 17.5243 3.26375 16.3111 2.7612C15.0978 2.25866 13.7975 2 12.4843 2Z" fill="white"/>
</svg>
