<svg width="17" height="16" viewBox="0 0 17 16" fill="none" xmlns="http://www.w3.org/2000/svg">
<path d="M13.4439 3.54713C13.3117 3.41458 13.1321 3.34009 12.9449 3.34009C12.7576 3.34009 12.5781 3.41458 12.4458 3.54713L8.98429 7.00156L5.52278 3.54005C5.39053 3.4075 5.21098 3.33301 5.02373 3.33301C4.83649 3.33301 4.65693 3.4075 4.52468 3.54005C4.24861 3.81612 4.24861 4.26208 4.52468 4.53815L7.98619 7.99966L4.52468 11.4612C4.24861 11.7372 4.24861 12.1832 4.52468 12.4593C4.80075 12.7353 5.24671 12.7353 5.52278 12.4593L8.98429 8.99777L12.4458 12.4593C12.7219 12.7353 13.1678 12.7353 13.4439 12.4593C13.72 12.1832 13.72 11.7372 13.4439 11.4612L9.9824 7.99966L13.4439 4.53815C13.7129 4.26916 13.7129 3.81612 13.4439 3.54713Z" fill="#B3B3B3"/>
</svg>
