<svg width="36" height="37" viewBox="0 0 36 37" fill="none" xmlns="http://www.w3.org/2000/svg">
<path d="M10.5 25.5029H25.5C25.8 25.5029 26.025 25.3654 26.175 25.0904C26.325 24.8154 26.3 24.5529 26.1 24.3029L21.975 18.7904C21.825 18.5904 21.625 18.4904 21.375 18.4904C21.125 18.4904 20.925 18.5904 20.775 18.7904L16.875 24.0029L14.1 20.2904C13.95 20.0904 13.75 19.9904 13.5 19.9904C13.25 19.9904 13.05 20.0904 12.9 20.2904L9.9 24.3029C9.7 24.5529 9.675 24.8154 9.825 25.0904C9.975 25.3654 10.2 25.5029 10.5 25.5029ZM7.5 31.5029C6.675 31.5029 5.9685 31.2094 5.3805 30.6224C4.7935 30.0344 4.5 29.3279 4.5 28.5029V7.50293C4.5 6.67793 4.7935 5.97143 5.3805 5.38343C5.9685 4.79643 6.675 4.50293 7.5 4.50293H28.5C29.325 4.50293 30.0315 4.79643 30.6195 5.38343C31.2065 5.97143 31.5 6.67793 31.5 7.50293V28.5029C31.5 29.3279 31.2065 30.0344 30.6195 30.6224C30.0315 31.2094 29.325 31.5029 28.5 31.5029H7.5ZM7.5 28.5029H28.5V7.50293H7.5V28.5029Z" fill="#CCCCCC"/>
</svg>
