<svg width="37" height="36" viewBox="0 0 37 36" fill="none" xmlns="http://www.w3.org/2000/svg">
<path d="M17.6797 27.2704L17.6776 27.2684C14.3658 24.1612 11.7353 21.6859 9.91531 19.3821C8.11319 17.1009 7.25 15.162 7.25 13.152C7.25 9.85739 9.70994 7.39648 12.7625 7.39648C14.5082 7.39648 16.2234 8.24537 17.3455 9.59808L18.5 10.9898L19.6545 9.59808C20.7766 8.24537 22.4918 7.39648 24.2375 7.39648C27.2901 7.39648 29.75 9.85739 29.75 13.152C29.75 15.162 28.8868 17.1009 27.0847 19.3821C25.2647 21.6859 22.6342 24.1612 19.3224 27.2684L19.3203 27.2704L18.5 28.0431L17.6797 27.2704Z" stroke="#999999" stroke-width="3"/>
</svg>
