<svg width="37" height="36" viewBox="0 0 37 36" fill="none" xmlns="http://www.w3.org/2000/svg">
<path d="M18.5 11.25C19.7426 11.25 20.75 10.2426 20.75 9C20.75 7.75736 19.7426 6.75 18.5 6.75C17.2574 6.75 16.25 7.75736 16.25 9C16.25 10.2426 17.2574 11.25 18.5 11.25Z" fill="#999999"/>
<path d="M18.5 20.25C19.7426 20.25 20.75 19.2426 20.75 18C20.75 16.7574 19.7426 15.75 18.5 15.75C17.2574 15.75 16.25 16.7574 16.25 18C16.25 19.2426 17.2574 20.25 18.5 20.25Z" fill="#999999"/>
<path d="M18.5 29.25C19.7426 29.25 20.75 28.2426 20.75 27C20.75 25.7574 19.7426 24.75 18.5 24.75C17.2574 24.75 16.25 25.7574 16.25 27C16.25 28.2426 17.2574 29.25 18.5 29.25Z" fill="#999999"/>
</svg>
