<svg width="52" height="52" viewBox="0 0 52 52" fill="none" xmlns="http://www.w3.org/2000/svg">
<path d="M31.9263 25.6367L23.4263 17.1367L23.4263 34.1367L31.9263 25.6367ZM46.8013 25.6367C46.8013 28.5763 46.2431 31.3388 45.1268 33.9242C44.0119 36.5096 42.4981 38.7586 40.5857 40.6711C38.6731 42.5836 36.4242 44.0973 33.8388 45.2122C31.2534 46.3286 28.4909 46.8867 25.5513 46.8867C22.6117 46.8867 19.8492 46.3286 17.2638 45.2122C14.6784 44.0973 12.4294 42.5836 10.5169 40.6711C8.6044 38.7586 7.08998 36.5096 5.97364 33.9242C4.85873 31.3388 4.30127 28.5763 4.30127 25.6367C4.30127 22.6971 4.85873 19.9346 5.97364 17.3492C7.08998 14.7638 8.60439 12.5148 10.5169 10.6023C12.4294 8.68985 14.6784 7.17614 17.2638 6.06122C19.8492 4.94489 22.6117 4.38672 25.5513 4.38672C28.4909 4.38672 31.2534 4.94489 33.8388 6.06122C36.4242 7.17614 38.6731 8.68984 40.5856 10.6023C42.4981 12.5148 44.0119 14.7638 45.1268 17.3492C46.2431 19.9346 46.8013 22.6971 46.8013 25.6367ZM42.5513 25.6367C42.5513 20.8909 40.9044 16.8711 37.6106 13.5773C34.3169 10.2836 30.2971 8.63672 25.5513 8.63672C20.8054 8.63672 16.7856 10.2836 13.4919 13.5774C10.1981 16.8711 8.55127 20.8909 8.55127 25.6367C8.55127 30.3826 10.1981 34.4023 13.4919 37.6961C16.7856 40.9898 20.8054 42.6367 25.5513 42.6367C30.2971 42.6367 34.3169 40.9898 37.6106 37.6961C40.9044 34.4023 42.5513 30.3826 42.5513 25.6367Z" fill="#808080"/>
</svg>
