<svg width="19" height="22" viewBox="0 0 19 22" fill="none" xmlns="http://www.w3.org/2000/svg">
<path d="M7.88184 19.5H11.8818C11.8818 20.6 10.9818 21.5 9.88184 21.5C8.78184 21.5 7.88184 20.6 7.88184 19.5ZM18.8818 17.5V18.5H0.881836V17.5L2.88184 15.5V9.5C2.88184 6.4 4.88184 3.7 7.88184 2.8V2.5C7.88184 1.4 8.78184 0.5 9.88184 0.5C10.9818 0.5 11.8818 1.4 11.8818 2.5V2.8C14.8818 3.7 16.8818 6.4 16.8818 9.5V15.5L18.8818 17.5ZM14.8818 9.5C14.8818 6.7 12.6818 4.5 9.88184 4.5C7.08184 4.5 4.88184 6.7 4.88184 9.5V16.5H14.8818V9.5Z" fill="#999999"/>
</svg>
