<svg width="20" height="20" viewBox="0 0 20 20" fill="none" xmlns="http://www.w3.org/2000/svg">
<path d="M2.03817 14.6243L2.03797 14.6246C1.78954 15.029 1.66577 15.466 1.66577 15.9572V16.9072C1.66577 17.2928 1.79149 17.5984 2.07113 17.8781C2.34961 18.1565 2.65472 18.2822 3.04077 18.2822H17.2908C17.6766 18.2822 17.9823 18.1567 18.2616 17.8781C18.5402 17.5987 18.6658 17.2931 18.6658 16.9072V15.9572C18.6658 15.466 18.542 15.029 18.2936 14.6246L18.2934 14.6243C18.0415 14.2139 17.7176 13.9126 17.3121 13.7015C16.1511 13.1216 14.9774 12.6892 13.7901 12.4013L2.03817 14.6243ZM2.03817 14.6243C2.29005 14.2139 2.61393 13.9125 3.01953 13.7015M2.03817 14.6243L3.01953 13.7015M3.01953 13.7015C4.18045 13.1216 5.3542 12.6892 6.54149 12.4013C7.731 12.1136 8.93853 11.9697 10.1658 11.9697C11.3928 11.9697 12.6002 12.1135 13.7895 12.4011L3.01953 13.7015ZM10.1658 8.78223C9.12685 8.78223 8.26236 8.42397 7.51819 7.67981C6.77402 6.93564 6.41577 6.07115 6.41577 5.03223C6.41577 3.9933 6.77402 3.12881 7.51819 2.38465C8.26236 1.64048 9.12685 1.28223 10.1658 1.28223C11.2047 1.28223 12.0692 1.64048 12.8134 2.38465C13.5575 3.12881 13.9158 3.9933 13.9158 5.03223C13.9158 6.07115 13.5575 6.93564 12.8134 7.67981C12.0692 8.42398 11.2047 8.78223 10.1658 8.78223Z" stroke="#999999" stroke-width="2"/>
</svg>
