<svg width="21" height="21" viewBox="0 0 21 21" fill="none" xmlns="http://www.w3.org/2000/svg">
<path d="M6.60184 14.9561L8.36284 14.4481L18.9658 3.71809C19.0495 3.63239 19.096 3.51722 19.0955 3.39748C19.0949 3.27773 19.0473 3.16301 18.9628 3.07809L18.3278 2.43609C18.2868 2.39393 18.2378 2.36036 18.1836 2.33735C18.1295 2.31434 18.0713 2.30234 18.0125 2.30206C17.9536 2.30178 17.8953 2.31322 17.841 2.33572C17.7866 2.35822 17.7373 2.39132 17.6958 2.43309L7.12084 13.1351L6.60084 14.9551L6.60184 14.9561ZM19.5848 1.16409L20.2198 1.80709C21.0958 2.69409 21.1038 4.12509 20.2358 5.00309L9.30984 16.0611L5.54584 17.1451C5.31603 17.2094 5.0701 17.1799 4.862 17.0631C4.6539 16.9463 4.50063 16.7518 4.43584 16.5221C4.38762 16.357 4.38692 16.1816 4.43384 16.0161L5.52884 12.1761L16.4258 1.14709C16.633 0.938448 16.8797 0.773152 17.1515 0.660843C17.4232 0.548533 17.7146 0.491459 18.0087 0.492948C18.3027 0.494438 18.5935 0.554461 18.8642 0.669517C19.1348 0.784574 19.3798 0.95336 19.5848 1.16409ZM8.06584 2.31709C8.56184 2.31709 8.96384 2.72409 8.96384 3.22609C8.96463 3.34476 8.94202 3.46242 8.8973 3.57234C8.85259 3.68227 8.78665 3.7823 8.70325 3.86672C8.61985 3.95115 8.52063 4.0183 8.41125 4.06435C8.30188 4.1104 8.1845 4.13444 8.06584 4.13509H4.47384C3.48184 4.13509 2.67784 4.94909 2.67784 5.95209V16.8581C2.67784 17.8621 3.48184 18.6761 4.47384 18.6761H15.2498C16.2418 18.6761 17.0468 17.8621 17.0468 16.8581V13.2231C17.0468 12.7211 17.4488 12.3141 17.9448 12.3141C18.4408 12.3141 18.8428 12.7211 18.8428 13.2241V16.8581C18.8428 18.8661 17.2338 20.4941 15.2498 20.4941H4.47384C2.48984 20.4941 0.881836 18.8661 0.881836 16.8581V5.95209C0.881836 3.94509 2.48984 2.31709 4.47384 2.31709H8.06584Z" fill="#999999"/>
</svg>
