<svg width="41" height="53" viewBox="0 0 41 53" fill="none" xmlns="http://www.w3.org/2000/svg">
<path d="M5.40283 52.623C4.02783 52.623 2.85116 52.1339 1.87283 51.1555C0.892832 50.1755 0.402832 48.998 0.402832 47.623V22.623C0.402832 21.248 0.892832 20.0705 1.87283 19.0905C2.85116 18.1122 4.02783 17.623 5.40283 17.623H7.90283V12.623C7.90283 9.16471 9.122 6.21638 11.5603 3.77805C13.997 1.34138 16.9445 0.123047 20.4028 0.123047C23.8612 0.123047 26.8095 1.34138 29.2478 3.77805C31.6845 6.21638 32.9028 9.16471 32.9028 12.623V17.623H35.4028C36.7778 17.623 37.9553 18.1122 38.9353 19.0905C39.9137 20.0705 40.4028 21.248 40.4028 22.623V47.623C40.4028 48.998 39.9137 50.1755 38.9353 51.1555C37.9553 52.1339 36.7778 52.623 35.4028 52.623H5.40283ZM5.40283 47.623H35.4028V22.623H5.40283V47.623ZM20.4028 40.123C21.7778 40.123 22.9553 39.6339 23.9353 38.6555C24.9137 37.6755 25.4028 36.498 25.4028 35.123C25.4028 33.748 24.9137 32.5705 23.9353 31.5905C22.9553 30.6122 21.7778 30.123 20.4028 30.123C19.0278 30.123 17.8512 30.6122 16.8728 31.5905C15.8928 32.5705 15.4028 33.748 15.4028 35.123C15.4028 36.498 15.8928 37.6755 16.8728 38.6555C17.8512 39.6339 19.0278 40.123 20.4028 40.123ZM12.9028 17.623H27.9028V12.623C27.9028 10.5397 27.1737 8.76888 25.7153 7.31055C24.257 5.85221 22.4862 5.12305 20.4028 5.12305C18.3195 5.12305 16.5487 5.85221 15.0903 7.31055C13.632 8.76888 12.9028 10.5397 12.9028 12.623V17.623Z" fill="#808080"/>
</svg>
