<svg width="19" height="19" viewBox="0 0 19 19" fill="none" xmlns="http://www.w3.org/2000/svg">
<path d="M16.7818 17.8L11.1818 12.2C10.6818 12.6 10.1068 12.9167 9.45684 13.15C8.80684 13.3833 8.11517 13.5 7.38184 13.5C5.56517 13.5 4.02784 12.871 2.76984 11.613C1.51117 10.3543 0.881836 8.81667 0.881836 7C0.881836 5.18333 1.51117 3.64567 2.76984 2.387C4.02784 1.129 5.56517 0.5 7.38184 0.5C9.1985 0.5 10.7362 1.129 11.9948 2.387C13.2528 3.64567 13.8818 5.18333 13.8818 7C13.8818 7.73333 13.7652 8.425 13.5318 9.075C13.2985 9.725 12.9818 10.3 12.5818 10.8L18.2068 16.425C18.3902 16.6083 18.4818 16.8333 18.4818 17.1C18.4818 17.3667 18.3818 17.6 18.1818 17.8C17.9985 17.9833 17.7652 18.075 17.4818 18.075C17.1985 18.075 16.9652 17.9833 16.7818 17.8ZM7.38184 11.5C8.63184 11.5 9.6945 11.0627 10.5698 10.188C11.4445 9.31267 11.8818 8.25 11.8818 7C11.8818 5.75 11.4445 4.68733 10.5698 3.812C9.6945 2.93733 8.63184 2.5 7.38184 2.5C6.13184 2.5 5.06917 2.93733 4.19384 3.812C3.31917 4.68733 2.88184 5.75 2.88184 7C2.88184 8.25 3.31917 9.31267 4.19384 10.188C5.06917 11.0627 6.13184 11.5 7.38184 11.5Z" fill="#999999"/>
</svg>
