<svg width="36" height="37" viewBox="0 0 36 37" fill="none" xmlns="http://www.w3.org/2000/svg">
<path d="M24.7196 18.5L30.6821 12.5375C31.4393 11.7804 31.4393 10.6446 30.6821 9.8875L26.7071 5.9125C25.95 5.15536 24.8143 5.15536 24.0571 5.9125L18 11.7804L12.0375 5.81786C11.2804 5.06071 10.1446 5.06071 9.3875 5.81786L5.31786 9.79286C4.56071 10.55 4.56071 11.6857 5.31786 12.4429L11.2804 18.5L4.75 25.0304V31.75H11.4696L18 25.2196L23.9625 31.1821C24.7196 31.9393 25.8554 31.9393 26.6125 31.1821L30.5875 27.2071C31.3446 26.45 31.3446 25.3143 30.5875 24.5571L24.7196 18.5ZM25.3821 7.14286L29.3571 11.1179L23.3946 17.0804L19.4196 13.1054L25.3821 7.14286ZM10.6179 29.8571H6.64286V25.8821L12.6054 19.9196L16.5804 23.8946L10.6179 29.8571ZM25.3821 29.8571L6.64286 11.1179L10.6179 7.14286L13.9304 10.4554L11.9429 12.4429L13.2679 13.7679L15.2554 11.7804L19.2304 15.7554L17.2429 17.7429L18.5679 19.0679L20.5554 17.0804L24.5304 21.0554L22.7321 23.1375L24.0571 24.4625L26.0446 22.475L29.3571 25.7875L25.3821 29.8571Z" fill="#CCCCCC"/>
</svg>
