<svg width="16" height="19" viewBox="0 0 16 19" fill="none" xmlns="http://www.w3.org/2000/svg">
<path d="M3 18.5938C2.45 18.5938 1.979 18.3978 1.587 18.0058C1.195 17.6138 0.999337 17.1431 1 16.5938V3.59375C0.71667 3.59375 0.479004 3.49775 0.287004 3.30575C0.0950036 3.11375 -0.000663206 2.87642 3.4602e-06 2.59375C3.4602e-06 2.31042 0.0960036 2.07275 0.288004 1.88075C0.480004 1.68875 0.717337 1.59309 1 1.59375H5C5 1.31042 5.096 1.07275 5.288 0.880753C5.48 0.688753 5.71734 0.593087 6 0.593753H10C10.2833 0.593753 10.521 0.689754 10.713 0.881754C10.905 1.07375 11.0007 1.31109 11 1.59375H15C15.2833 1.59375 15.521 1.68975 15.713 1.88175C15.905 2.07375 16.0007 2.31109 16 2.59375C16 2.87709 15.904 3.11475 15.712 3.30675C15.52 3.49875 15.2827 3.59442 15 3.59375V16.5938C15 17.1438 14.804 17.6148 14.412 18.0068C14.02 18.3988 13.5493 18.5944 13 18.5938H3ZM3 3.59375V16.5938H13V3.59375H3ZM5 13.5938C5 13.8771 5.096 14.1148 5.288 14.3068C5.48 14.4988 5.71734 14.5944 6 14.5938C6.28334 14.5938 6.521 14.4978 6.713 14.3058C6.905 14.1138 7.00067 13.8764 7 13.5938V6.59375C7 6.31042 6.904 6.07275 6.712 5.88075C6.52 5.68875 6.28267 5.59309 6 5.59375C5.71667 5.59375 5.479 5.68975 5.287 5.88175C5.095 6.07375 4.99934 6.31109 5 6.59375V13.5938ZM9 13.5938C9 13.8771 9.096 14.1148 9.288 14.3068C9.48 14.4988 9.71734 14.5944 10 14.5938C10.2833 14.5938 10.521 14.4978 10.713 14.3058C10.905 14.1138 11.0007 13.8764 11 13.5938V6.59375C11 6.31042 10.904 6.07275 10.712 5.88075C10.52 5.68875 10.2827 5.59309 10 5.59375C9.71667 5.59375 9.479 5.68975 9.287 5.88175C9.095 6.07375 8.99934 6.31109 9 6.59375V13.5938Z" fill="#CCCCCC"/>
</svg>
