<svg width="24" height="24" viewBox="0 0 24 24" fill="none" xmlns="http://www.w3.org/2000/svg">
<g clip-path="url(#clip0_1047_16515)">
<path d="M21 0H3C1.34315 0 0 1.34315 0 3V21C0 22.6569 1.34315 24 3 24H21C22.6569 24 24 22.6569 24 21V3C24 1.34315 22.6569 0 21 0Z" fill="white"/>
<path d="M12.645 4.39523L20.55 15.9302C20.6301 16.0504 20.6801 16.1881 20.6957 16.3317C20.7114 16.4753 20.6923 16.6206 20.64 16.7552L19.74 18.9902C19.7181 19.0521 19.6774 19.1057 19.6236 19.1433C19.5698 19.181 19.5056 19.2009 19.44 19.2002H15.105C15.0393 19.2009 14.9751 19.181 14.9213 19.1433C14.8675 19.1057 14.8269 19.0521 14.805 18.9902C13.6912 15.909 12.8039 14.084 12.15 10.8736C12.15 10.8338 12.1342 10.7956 12.106 10.7675C12.0779 10.7394 12.0398 10.7236 12 10.7236C11.9602 10.7236 11.922 10.7394 11.8939 10.7675C11.8658 10.7956 11.85 10.8338 11.85 10.8736C11.196 14.084 10.3087 15.909 9.19497 18.9902C9.17308 19.0521 9.13241 19.1057 9.07862 19.1433C9.02483 19.181 8.96062 19.2009 8.89497 19.2002H4.49997C4.43431 19.2009 4.3701 19.181 4.31632 19.1433C4.26253 19.1057 4.22185 19.0521 4.19997 18.9902L3.29997 16.7552C3.24766 16.6206 3.22854 16.4753 3.2442 16.3317C3.25986 16.1881 3.30986 16.0504 3.38997 15.9302L11.295 4.39523C11.3602 4.27289 11.4575 4.17059 11.5764 4.09925C11.6953 4.02792 11.8313 3.99023 11.97 3.99023C12.1086 3.99023 12.2447 4.02792 12.3636 4.09925C12.4824 4.17059 12.5797 4.27289 12.645 4.39523Z" fill="#262626"/>
</g>
<defs>
<clipPath id="clip0_1047_16515">
<rect width="24" height="24" fill="white"/>
</clipPath>
</defs>
</svg>
